<?xml version="1.0" encoding="utf-8"?>
<!-- Generator: Adobe Illustrator 23.0.3, SVG Export Plug-In . SVG Version: 6.00 Build 0)  -->
<svg version="1.1" id="Capa_1" xmlns="http://www.w3.org/2000/svg" xmlns:xlink="http://www.w3.org/1999/xlink" x="0px" y="0px"
	 viewBox="0 0 269.77 151.74" style="enable-background:new 0 0 269.77 151.74;" xml:space="preserve">
<style type="text/css">
	.st0{fill:#211915;}
</style>
<path class="st0" d="M231.73,37.01c-1.25-1.24-2.54-1.87-3.86-1.87c-1.33,0-2.87,0.75-4.61,2.24c-1.66,1.33-4.04,5.54-7.15,12.63
	c-3.11,7.09-5.91,13.83-8.4,20.22c-2.49,6.39-3.94,9.58-4.35,9.58c-0.51,0-0.92-0.62-1.25-1.87c-0.34-1.24-1.2-5.39-2.61-12.44
	c-1.99-9.7-4.06-16.61-6.22-20.71c-2.15-4.11-4.84-6.16-8.09-6.16c-3.32,0-4.98,1.58-4.98,4.73c0,1.52,0.41,3.76,1.23,6.72
	c-1.86-0.11-4.14-0.16-6.93-0.16c-3.27,0-5.94,0.04-8.03,0.1l-8.21,0.1c0.29-1.24,0.46-2.48,0.46-3.7c0-2.61-0.75-4.61-2.24-6.01
	c-1.4-1.4-2.85-2.1-4.33-2.1c-1.49,0-3.22,0.84-5.17,2.52c-1.87,1.49-4.55,6.22-8.04,14.19c-3.5,7.97-6.64,15.55-9.44,22.72
	c-2.8,7.18-4.43,10.77-4.89,10.77c-0.56,0-1.03-0.7-1.4-2.1c-0.37-1.4-1.35-6.05-2.94-13.98c-2.24-10.9-4.57-18.67-6.99-23.28
	c-2.43-4.61-5.45-6.92-9.09-6.92c-3.73,0-5.59,1.77-5.59,5.31c0,1.55,0.41,3.81,1.17,6.7c-3.19,0.27-7.79,1.02-13.96,2.29
	c-4.84,1-8.81,1.86-11.89,2.59L49.21,64.5l-5.13,4.2c-2.22,1.69-3.75,3.17-4.58,4.44c-0.83,1.26-1.62,3.11-2.36,5.55
	c-0.79,2.63-1.15,4.8-1.09,6.5c0.06,1.7,0.61,5.06,1.65,10.08c0.96,4.65,1.7,7.69,2.23,9.1c0.53,1.41,1.29,2.45,2.28,3.1
	c2.2,1.44,4.3,1.97,6.31,1.55c1.46-0.3,2.69-1.03,3.69-2.19c1.09-1.18,1.65-2.39,1.68-3.63c0.03-1.24-0.35-4.45-1.12-9.62
	c-0.96-6.08-1.18-9.87-0.63-11.36c0.55-1.49,2.69-2.91,6.41-4.25c4.2-1.34,13.74-3.54,28.62-6.6c6.77-1.47,12.13-2.68,16.22-3.65
	c0.75,3.27,1.49,6.83,2.22,10.7c3.73,21.16,8.71,33.41,14.96,36.77c1.77,0.93,3.35,1.4,4.75,1.4c1.3,0,2.7-0.51,4.2-1.54
	c1.3-0.93,2.84-3.24,4.61-6.92c1.77-3.68,5.64-12.88,11.6-27.61c0.6-1.44,1.15-2.76,1.7-4.09c0.08-0.18,0.21-0.35,0.26-0.55
	c0.01-0.03,0.01-0.08,0.02-0.11c2.82-6.79,5-11.98,6.55-15.61c2.98-0.3,9.35-0.46,19.17-0.47c4.36-0.05,7.87-0.12,10.6-0.2
	c0.82,3.41,1.63,7.16,2.42,11.36c3.32,18.83,7.75,29.74,13.31,32.72c1.58,0.83,2.99,1.24,4.23,1.24c1.16,0,2.41-0.46,3.74-1.37
	c1.16-0.83,2.53-2.88,4.11-6.16c1.57-3.27,5.02-11.46,10.33-24.57c5.64-13.6,8.91-21.36,9.82-23.27c1.16-2.41,1.75-4.77,1.75-7.09
	C233.72,40.04,233.06,38.25,231.73,37.01z"/>
</svg>
